<svg xmlns="http://www.w3.org/2000/svg" width="2000" height="2000" viewBox="0 0 2000 2000"><rect x="1206.649521571127" y="233.20225623514253" width="60" height="60" fill="black" fill-opacity="0.9"/><rect x="893.9763723976838" y="733.9294374370165" width="60" height="60" fill="black" fill-opacity="0.9"/><rect x="563.8624932789955" y="624.6859426504717" width="60" height="60" fill="black" fill-opacity="0.9"/><rect x="1797.6962254617763" y="975.5583053177339" width="60" height="60" fill="black" fill-opacity="0.9"/><rect x="1344.1426007395037" y="1097.6915981642726" width="60" height="60" fill="black" fill-opacity="0.9"/><rect x="539.3970987834045" y="1868.62462913292" width="60" height="60" fill="black" fill-opacity="0.9"/><rect x="593.7114499923094" y="517.0254846747792" width="60" height="60" fill="black" fill-opacity="0.9"/><rect x="801.0910197043512" y="736.5578343353358" width="60" height="60" fill="black" fill-opacity="0.9"/><rect x="262.378508926162" y="747.3970020421796" width="60" height="60" fill="black" fill-opacity="0.9"/><rect x="1007.6613868744008" y="344.6513103710008" width="60" height="60" fill="black" fill-opacity="0.9"/><rect x="6.266305817761834" y="1391.4211784137678" width="60" height="60" fill="black" fill-opacity="0.9"/><rect x="1895.0283105765477" y="1224.8664700713946" width="60" height="60" fill="black" fill-opacity="0.9"/><rect x="1218.6907559576048" y="969.362513949852" width="60" height="60" fill="black" fill-opacity="0.9"/><rect x="528.7154310475722" y="335.9442127144696" width="60" height="60" fill="black" fill-opacity="0.9"/><rect x="1086.3436685743143" y="688.0767694367903" width="60" height="60" fill="black" fill-opacity="0.9"/><rect x="1204.6467365289234" y="385.3761399818408" width="60" height="60" fill="black" fill-opacity="0.9"/><rect x="1345.624380751799" y="1198.9330367453297" width="60" height="60" fill="black" fill-opacity="0.9"/><rect x="1459.2143455076402" y="1556.9623160519698" width="60" height="60" fill="black" fill-opacity="0.9"/><rect x="1633.441359463987" y="1319.283548729752" width="60" height="60" fill="black" fill-opacity="0.9"/><rect x="571.7132408428323" y="476.79696128014615" width="60" height="60" fill="black" fill-opacity="0.9"/><rect x="1841.9322275961256" y="732.2947636889622" width="60" height="60" fill="black" fill-opacity="0.9"/><rect x="574.6389055856251" y="726.0038142836983" width="60" height="60" fill="black" fill-opacity="0.9"/><rect x="738.2280743183251" y="213.95833519677433" width="60" height="60" fill="black" fill-opacity="0.9"/><rect x="74.15601773025456" y="1224.628909497758" width="60" height="60" fill="black" fill-opacity="0.9"/><rect x="76.59614680879632" y="326.8779867573303" width="60" height="60" fill="black" fill-opacity="0.9"/><rect x="1341.815532741503" y="752.8562319413993" width="60" height="60" fill="black" fill-opacity="0.9"/><rect x="864.2149036502774" y="178.3551373456588" width="60" height="60" fill="black" fill-opacity="0.9"/><rect x="711.0644372662337" y="31.011687910171993" width="60" height="60" fill="black" fill-opacity="0.9"/><rect x="414.9373652030094" y="536.9362091353196" width="60" height="60" fill="black" fill-opacity="0.9"/><rect x="55.47226953536839" y="197.22097084626625" width="60" height="60" fill="black" fill-opacity="0.9"/><rect x="345.77859295302545" y="943.2018869545309" width="60" height="60" fill="black" fill-opacity="0.9"/><rect x="141.74601204845288" y="1319.0043817130527" width="60" height="60" fill="black" fill-opacity="0.9"/><rect x="947.2854510625864" y="713.245814930168" width="60" height="60" fill="black" fill-opacity="0.9"/><rect x="515.1171677538367" y="81.64825859997259" width="60" height="60" fill="black" fill-opacity="0.9"/><rect x="140.6741159916473" y="1392.8733170950838" width="60" height="60" fill="black" fill-opacity="0.9"/><rect x="1363.0488813563152" y="76.28519131404549" width="60" height="60" fill="black" fill-opacity="0.9"/><rect x="105.66352676104859" y="1325.0341990490897" width="60" height="60" fill="black" fill-opacity="0.9"/><rect x="1911.2611199377473" y="708.4843966924913" width="60" height="60" fill="black" fill-opacity="0.9"/><rect x="333.92675532479217" y="50.80624678491643" width="60" height="60" fill="black" fill-opacity="0.9"/><rect x="731.6575362665026" y="1416.4250270572109" width="60" height="60" fill="black" fill-opacity="0.9"/><rect x="1012.9653818686263" y="728.4142807350246" width="60" height="60" fill="black" fill-opacity="0.9"/><rect x="1086.2010967646286" y="1274.5103479673226" width="60" height="60" fill="black" fill-opacity="0.9"/><rect x="317.18251834734417" y="1348.3454733492317" width="60" height="60" fill="black" fill-opacity="0.9"/><rect x="1765.9916160305736" y="1561.6459183702207" width="60" height="60" fill="black" fill-opacity="0.9"/><rect x="1884.6635621720216" y="397.0049000910778" width="60" height="60" fill="black" fill-opacity="0.9"/><rect x="1418.809288583761" y="1260.9007778642158" width="60" height="60" fill="black" fill-opacity="0.9"/><rect x="1704.2284515793765" y="1547.0583403929554" width="60" height="60" fill="black" fill-opacity="0.9"/><rect x="846.6122378215501" y="1651.1021337426832" width="60" height="60" fill="black" fill-opacity="0.9"/><rect x="905.4554467079995" y="365.85628317242083" width="60" height="60" fill="black" fill-opacity="0.9"/><rect x="1806.505773485823" y="1886.6860478213061" width="60" height="60" fill="black" fill-opacity="0.9"/><rect x="634.3509654872367" y="126.11508178343648" width="60" height="60" fill="black" fill-opacity="0.9"/><rect x="1404.9056932833766" y="522.8878328422865" width="60" height="60" fill="black" fill-opacity="0.9"/><rect x="1510.917864682198" y="1666.7766201626764" width="60" height="60" fill="black" fill-opacity="0.9"/><rect x="1555.5393922547628" y="828.0555032839341" width="60" height="60" fill="black" fill-opacity="0.9"/><rect x="1328.4579534503287" y="1219.0007458779123" width="60" height="60" fill="black" fill-opacity="0.9"/><rect x="224.6032640932375" y="28.934326752615597" width="60" height="60" fill="black" fill-opacity="0.9"/><rect x="459.5559124949775" y="421.60074079021956" width="60" height="60" fill="black" fill-opacity="0.9"/><rect x="767.6164288371065" y="696.1815011311944" width="60" height="60" fill="black" fill-opacity="0.9"/><rect x="1441.7550487907897" y="1880.141673536552" width="60" height="60" fill="black" fill-opacity="0.9"/><rect x="1191.7963386168014" y="1569.295753291071" width="60" height="60" fill="black" fill-opacity="0.9"/><rect x="568.4976949657349" y="1365.8578616491113" width="60" height="60" fill="black" fill-opacity="0.9"/><rect x="938.3939179545837" y="1485.2540006166423" width="60" height="60" fill="black" fill-opacity="0.9"/><rect x="1902.3286758758106" y="1544.6088651109364" width="60" height="60" fill="black" fill-opacity="0.9"/><rect x="358.78613460936754" y="495.61902227143304" width="60" height="60" fill="black" fill-opacity="0.9"/><rect x="1311.816487030258" y="1810.7817315329562" width="60" height="60" fill="black" fill-opacity="0.9"/><rect x="439.24482172356846" y="1203.6270832276346" width="60" height="60" fill="black" fill-opacity="0.9"/><rect x="1680.803860598795" y="1451.5145867017745" width="60" height="60" fill="black" fill-opacity="0.9"/><rect x="1017.656038768476" y="1251.3914548028374" width="60" height="60" fill="black" fill-opacity="0.9"/><rect x="1874.313934847715" y="1263.4284681222193" width="60" height="60" fill="black" fill-opacity="0.9"/><rect x="728.2287643678679" y="541.7879514906366" width="60" height="60" fill="black" fill-opacity="0.9"/><rect x="1148.736879938285" y="773.4245092850716" width="60" height="60" fill="black" fill-opacity="0.9"/><rect x="1325.8382443414393" y="1119.8241557447884" width="60" height="60" fill="black" fill-opacity="0.9"/><rect x="383.9460132454635" y="337.7599902170354" width="60" height="60" fill="black" fill-opacity="0.9"/><rect x="1811.1570602234656" y="628.5827965700906" width="60" height="60" fill="black" fill-opacity="0.9"/><rect x="1699.1640423262515" y="837.0196929795216" width="60" height="60" fill="black" fill-opacity="0.9"/><rect x="587.9690604565304" y="718.297806810966" width="60" height="60" fill="black" fill-opacity="0.9"/><rect x="1328.5563975759121" y="908.4482072666216" width="60" height="60" fill="black" fill-opacity="0.9"/><rect x="223.54677188938933" y="316.5928376188555" width="60" height="60" fill="black" fill-opacity="0.9"/><rect x="1866.053790340838" y="1677.7193569750475" width="60" height="60" fill="black" fill-opacity="0.9"/><rect x="1250.8597610617055" y="629.3620716010147" width="60" height="60" fill="black" fill-opacity="0.9"/><rect x="399.1311019825677" y="178.3924663184978" width="60" height="60" fill="black" fill-opacity="0.9"/><rect x="762.5875141433396" y="725.4965827372287" width="60" height="60" fill="black" fill-opacity="0.9"/><rect x="1362.2969075511805" y="68.44824298770371" width="60" height="60" fill="black" fill-opacity="0.9"/><rect x="1165.9512693808215" y="1813.2725795325114" width="60" height="60" fill="black" fill-opacity="0.9"/><rect x="151.27720934873517" y="399.69955874215754" width="60" height="60" fill="black" fill-opacity="0.9"/><rect x="1022.4695497684115" y="1864.2657587283923" width="60" height="60" fill="black" fill-opacity="0.9"/><rect x="1403.6112534442725" y="1345.3419769373484" width="60" height="60" fill="black" fill-opacity="0.9"/><rect x="893.8139163932226" y="1298.7089040064945" width="60" height="60" fill="black" fill-opacity="0.9"/><rect x="416.0792352688881" y="1514.6072798615794" width="60" height="60" fill="black" fill-opacity="0.9"/><rect x="186.0206545705553" y="1104.791852904497" width="60" height="60" fill="black" fill-opacity="0.9"/><rect x="403.55058966366397" y="1456.9290809332167" width="60" height="60" fill="black" fill-opacity="0.9"/><rect x="242.19008451863863" y="291.7314425691909" width="60" height="60" fill="black" fill-opacity="0.9"/><rect x="640.649762872759" y="429.4934467602853" width="60" height="60" fill="black" fill-opacity="0.9"/><rect x="1473.8804842576849" y="1326.9818461085508" width="60" height="60" fill="black" fill-opacity="0.9"/><rect x="945.2693528279704" y="633.6861290574429" width="60" height="60" fill="black" fill-opacity="0.9"/><rect x="799.3262020444861" y="1694.9519836918778" width="60" height="60" fill="black" fill-opacity="0.9"/><rect x="1034.899968795289" y="1674.5071958880715" width="60" height="60" fill="black" fill-opacity="0.9"/><rect x="339.15080479259575" y="350.9190995593524" width="60" height="60" fill="black" fill-opacity="0.9"/><rect x="263.322296613132" y="1595.3648001894971" width="60" height="60" fill="black" fill-opacity="0.9"/><rect x="166.8026762772577" y="518.3539958811941" width="60" height="60" fill="black" fill-opacity="0.9"/><rect x="147.2297898376715" y="12.109398370372045" width="60" height="60" fill="black" fill-opacity="0.9"/><rect x="1595.981097014201" y="111.53517724249654" width="60" height="60" fill="black" fill-opacity="0.9"/><rect x="1907.2331093954936" y="792.8258554561261" width="60" height="60" fill="black" fill-opacity="0.9"/><rect x="1523.8808158803224" y="837.7599631325066" width="60" height="60" fill="black" fill-opacity="0.9"/><rect x="1567.7709578707224" y="622.4057693693702" width="60" height="60" fill="black" fill-opacity="0.9"/><rect x="237.5066229359035" y="1711.0053979251893" width="60" height="60" fill="black" fill-opacity="0.9"/><rect x="572.1294067240397" y="947.1770124334586" width="60" height="60" fill="black" fill-opacity="0.9"/><rect x="1470.4557300421297" y="730.9388954918055" width="60" height="60" fill="black" fill-opacity="0.9"/><rect x="1271.831071725873" y="621.143205082149" width="60" height="60" fill="black" fill-opacity="0.9"/><rect x="935.1127231834037" y="1687.991949365783" width="60" height="60" fill="black" fill-opacity="0.9"/><rect x="1261.5154490271395" y="1417.8560786121361" width="60" height="60" fill="black" fill-opacity="0.9"/><rect x="282.2671683773948" y="1220.9253095573245" width="60" height="60" fill="black" fill-opacity="0.9"/><rect x="823.4450819762889" y="1038.9564204720264" width="60" height="60" fill="black" fill-opacity="0.9"/><rect x="721.0501592132647" y="763.8639683856671" width="60" height="60" fill="black" fill-opacity="0.9"/><rect x="312.982731027928" y="1494.061417050561" width="60" height="60" fill="black" fill-opacity="0.9"/><rect x="22.06646293271425" y="1719.1155434851216" width="60" height="60" fill="black" fill-opacity="0.9"/><rect x="912.2504680518333" y="740.3119018617332" width="60" height="60" fill="black" fill-opacity="0.9"/><rect x="1429.61361574285" y="79.58854600755262" width="60" height="60" fill="black" fill-opacity="0.9"/><rect x="893.6967281917118" y="1602.4831228461107" width="60" height="60" fill="black" fill-opacity="0.9"/><rect x="1640.4398490767774" y="1142.5074810813303" width="60" height="60" fill="black" fill-opacity="0.9"/><rect x="438.97238783450894" y="710.5151177551347" width="60" height="60" fill="black" fill-opacity="0.9"/><rect x="1840.195434589384" y="903.4129259393867" width="60" height="60" fill="black" fill-opacity="0.9"/><rect x="1151.2832065629302" y="1903.7518515161107" width="60" height="60" fill="black" fill-opacity="0.9"/><rect x="523.7431092988496" y="332.5331539080513" width="60" height="60" fill="black" fill-opacity="0.9"/><rect x="1839.1824942287224" y="370.1049387045826" width="60" height="60" fill="black" fill-opacity="0.9"/><rect x="957.5869663185715" y="1471.7729266315137" width="60" height="60" fill="black" fill-opacity="0.9"/><rect x="1782.532432288125" y="1372.7820638879105" width="60" height="60" fill="black" fill-opacity="0.9"/><rect x="227.35745261878574" y="171.83135914043118" width="60" height="60" fill="black" fill-opacity="0.9"/><rect x="1095.5582892456089" y="985.50870322329" width="60" height="60" fill="black" fill-opacity="0.9"/><rect x="1079.9414638284939" y="860.205181542626" width="60" height="60" fill="black" fill-opacity="0.9"/><rect x="961.8604784771185" y="1927.5999650759354" width="60" height="60" fill="black" fill-opacity="0.9"/><rect x="1535.192947612636" y="1794.5604630802093" width="60" height="60" fill="black" fill-opacity="0.9"/><rect x="660.2921152054251" y="443.66154677336306" width="60" height="60" fill="black" fill-opacity="0.9"/><rect x="487.5772700920429" y="1785.9339454619624" width="60" height="60" fill="black" fill-opacity="0.9"/><rect x="1278.7662750136496" y="811.3940982051051" width="60" height="60" fill="black" fill-opacity="0.9"/><rect x="936.9108551518423" y="654.735679244567" width="60" height="60" fill="black" fill-opacity="0.9"/><rect x="1889.3769849548578" y="596.4424430007118" width="60" height="60" fill="black" fill-opacity="0.9"/><rect x="239.39170557932752" y="1555.7356888391676" width="60" height="60" fill="black" fill-opacity="0.9"/><rect x="1719.5043117408566" y="1929.1584379218748" width="60" height="60" fill="black" fill-opacity="0.9"/><rect x="190.86107737139943" y="982.7208797393859" width="60" height="60" fill="black" fill-opacity="0.9"/><rect x="295.2186493102819" y="422.6006264566517" width="60" height="60" fill="black" fill-opacity="0.9"/><rect x="1900.7363304535327" y="866.1018312287191" width="60" height="60" fill="black" fill-opacity="0.9"/><rect x="609.2071633599998" y="629.357278040842" width="60" height="60" fill="black" fill-opacity="0.9"/><rect x="1696.4791598899583" y="1042.1721172898351" width="60" height="60" fill="black" fill-opacity="0.9"/><rect x="1742.0482423341964" y="449.2428828100587" width="60" height="60" fill="black" fill-opacity="0.9"/><rect x="1472.626197295755" y="60.759120853372906" width="60" height="60" fill="black" fill-opacity="0.9"/><rect x="454.844520887365" y="1327.0154423103445" width="60" height="60" fill="black" fill-opacity="0.9"/><rect x="901.5040686698791" y="36.07029866762476" width="60" height="60" fill="black" fill-opacity="0.9"/><rect x="103.42228015967451" y="652.730162379418" width="60" height="60" fill="black" fill-opacity="0.9"/><rect x="1308.0160966715666" y="393.03794219629754" width="60" height="60" fill="black" fill-opacity="0.9"/><rect x="1586.1496438249799" y="69.96766637075824" width="60" height="60" fill="black" fill-opacity="0.9"/><rect x="1584.3602766006695" y="869.0513792395639" width="60" height="60" fill="black" fill-opacity="0.9"/><rect x="666.0350313071928" y="1692.5800413165152" width="60" height="60" fill="black" fill-opacity="0.9"/><rect x="1078.743833566405" y="159.24753134610566" width="60" height="60" fill="black" fill-opacity="0.9"/><rect x="1247.408275978299" y="1235.2868891886496" width="60" height="60" fill="black" fill-opacity="0.9"/><rect x="1810.6103407431663" y="1473.124910320984" width="60" height="60" fill="black" fill-opacity="0.9"/><rect x="1914.056071882622" y="205.6431682945111" width="60" height="60" fill="black" fill-opacity="0.9"/><rect x="1629.910930234785" y="709.2569427025766" width="60" height="60" fill="black" fill-opacity="0.9"/><rect x="384.16979978936337" y="1536.8657776559025" width="60" height="60" fill="black" fill-opacity="0.9"/><rect x="523.690282740771" y="1793.217863521883" width="60" height="60" fill="black" fill-opacity="0.9"/><rect x="18.402476367308974" y="1163.4943752067456" width="60" height="60" fill="black" fill-opacity="0.9"/><rect x="1179.9793723069638" y="1204.4735918357696" width="60" height="60" fill="black" fill-opacity="0.9"/><rect x="1537.0785800177268" y="103.55545504782152" width="60" height="60" fill="black" fill-opacity="0.9"/><rect x="1064.6216354901635" y="1.1885935195386454" width="60" height="60" fill="black" fill-opacity="0.9"/><rect x="309.17876807799763" y="1923.6274833239697" width="60" height="60" fill="black" fill-opacity="0.9"/><rect x="1849.314609840687" y="695.4385092486289" width="60" height="60" fill="black" fill-opacity="0.9"/><rect x="1151.1021596925598" y="1232.9016945203398" width="60" height="60" fill="black" fill-opacity="0.9"/><rect x="645.1589764371879" y="370.6217875110327" width="60" height="60" fill="black" fill-opacity="0.9"/><rect x="467.09037661191167" y="274.1931955430356" width="60" height="60" fill="black" fill-opacity="0.9"/><rect x="1012.8264455148861" y="289.33519220018076" width="60" height="60" fill="black" fill-opacity="0.9"/><rect x="689.1422117392251" y="1027.6155309839123" width="60" height="60" fill="black" fill-opacity="0.9"/><rect x="759.4745450479192" y="1686.4152435725462" width="60" height="60" fill="black" fill-opacity="0.9"/><rect x="1348.1504828871205" y="684.9163415522364" width="60" height="60" fill="black" fill-opacity="0.9"/><rect x="1191.1429213584402" y="1449.02188217346" width="60" height="60" fill="black" fill-opacity="0.9"/><rect x="1817.8387666829226" y="875.7480272459147" width="60" height="60" fill="black" fill-opacity="0.9"/><rect x="338.57269051831304" y="398.11229660916837" width="60" height="60" fill="black" fill-opacity="0.9"/><rect x="932.1039139177702" y="1234.337739097369" width="60" height="60" fill="black" fill-opacity="0.9"/><rect x="1436.9231831168636" y="1655.782100315109" width="60" height="60" fill="black" fill-opacity="0.9"/><rect x="1563.339958868269" y="197.59994593033318" width="60" height="60" fill="black" fill-opacity="0.9"/><rect x="266.37728399410116" y="122.80275711483102" width="60" height="60" fill="black" fill-opacity="0.9"/><rect x="992.7962820827587" y="1324.1569097593172" width="60" height="60" fill="black" fill-opacity="0.9"/><rect x="742.2728798573438" y="1182.6857223032514" width="60" height="60" fill="black" fill-opacity="0.9"/><rect x="1176.9244406350617" y="225.57111997834645" width="60" height="60" fill="black" fill-opacity="0.9"/><rect x="36.193481377187204" y="1920.5070246602627" width="60" height="60" fill="black" fill-opacity="0.9"/><rect x="1309.0113192615113" y="932.7708344674286" width="60" height="60" fill="black" fill-opacity="0.9"/><rect x="1938.4043009255001" y="1849.5861881779533" width="60" height="60" fill="black" fill-opacity="0.9"/><rect x="825.7437493674158" y="1633.4458591747111" width="60" height="60" fill="black" fill-opacity="0.9"/><rect x="743.490622936313" y="963.3369463688853" width="60" height="60" fill="black" fill-opacity="0.9"/><rect x="1873.4034603639734" y="931.4215778821563" width="60" height="60" fill="black" fill-opacity="0.9"/><rect x="1256.7641214618568" y="1636.4288958017848" width="60" height="60" fill="black" fill-opacity="0.9"/><rect x="1136.8926368745733" y="1415.5887965938034" width="60" height="60" fill="black" fill-opacity="0.9"/><rect x="1212.6580818872037" y="1464.0780373332525" width="60" height="60" fill="black" fill-opacity="0.9"/><rect x="1873.9824825456037" y="1529.3894907834722" width="60" height="60" fill="black" fill-opacity="0.9"/><rect x="527.5070371855688" y="755.2190682764923" width="60" height="60" fill="black" fill-opacity="0.9"/><rect x="1510.553308502672" y="1755.308934505668" width="60" height="60" fill="black" fill-opacity="0.9"/><rect x="255.85260739564896" y="956.0076470872643" width="60" height="60" fill="black" fill-opacity="0.9"/><rect x="62.89426139506165" y="1843.0929506612952" width="60" height="60" fill="black" fill-opacity="0.9"/><rect x="1912.841974916769" y="220.52604418537877" width="60" height="60" fill="black" fill-opacity="0.9"/><rect x="819.0111674503269" y="303.9886278100919" width="60" height="60" fill="black" fill-opacity="0.9"/><rect x="1276.1397661717237" y="755.0710471561293" width="60" height="60" fill="black" fill-opacity="0.9"/></svg>