<svg xmlns="http://www.w3.org/2000/svg" width="2000" height="2000" viewBox="0 0 2000 2000"><rect x="1.1912479796818665" y="233.30863451630927" width="60" height="60" fill="hsl(49, 100%, 98%)" fill-opacity="0.9"/><rect x="519.0940125834746" y="557.3270780799244" width="60" height="60" fill="hsl(49, 100%, 98%)" fill-opacity="0.9"/><rect x="1287.7802447844506" y="1105.5465054890963" width="60" height="60" fill="hsl(49, 100%, 98%)" fill-opacity="0.9"/><rect x="1622.6729375062087" y="202.68046956575182" width="60" height="60" fill="hsl(49, 100%, 98%)" fill-opacity="0.9"/><rect x="1666.872999369081" y="1086.585203686862" width="60" height="60" fill="hsl(49, 100%, 98%)" fill-opacity="0.9"/><rect x="36.152964674223746" y="67.94052542570539" width="60" height="60" fill="hsl(49, 100%, 98%)" fill-opacity="0.9"/><rect x="318.5345208301851" y="1243.9233925257456" width="60" height="60" fill="hsl(49, 100%, 98%)" fill-opacity="0.9"/><rect x="830.751696291485" y="1464.188669298046" width="60" height="60" fill="hsl(49, 100%, 98%)" fill-opacity="0.9"/><rect x="945.264668093993" y="145.8221726334102" width="60" height="60" fill="hsl(49, 100%, 98%)" fill-opacity="0.9"/><rect x="1224.2124225363173" y="1505.1408911052092" width="60" height="60" fill="hsl(49, 100%, 98%)" fill-opacity="0.9"/><rect x="795.8393534006113" y="95.86338247226705" width="60" height="60" fill="hsl(49, 100%, 98%)" fill-opacity="0.9"/><rect x="1064.6909275312516" y="203.79453287419187" width="60" height="60" fill="hsl(49, 100%, 98%)" fill-opacity="0.9"/><rect x="1045.775265445456" y="1168.8753735207122" width="60" height="60" fill="hsl(49, 100%, 98%)" fill-opacity="0.9"/><rect x="1789.0961454877101" y="1705.1513416225832" width="60" height="60" fill="hsl(49, 100%, 98%)" fill-opacity="0.9"/><rect x="255.36398153013198" y="694.4034284504323" width="60" height="60" fill="hsl(49, 100%, 98%)" fill-opacity="0.9"/><rect x="739.0399681407737" y="194.84651202648462" width="60" height="60" fill="hsl(49, 100%, 98%)" fill-opacity="0.9"/><rect x="1206.6915000423608" y="944.856984087228" width="60" height="60" fill="hsl(49, 100%, 98%)" fill-opacity="0.9"/><rect x="1296.6938483339604" y="919.3778759617451" width="60" height="60" fill="hsl(49, 100%, 98%)" fill-opacity="0.9"/><rect x="1791.0059965439416" y="1129.9248481823706" width="60" height="60" fill="hsl(49, 100%, 98%)" fill-opacity="0.9"/><rect x="1086.923928881452" y="162.32031518498303" width="60" height="60" fill="hsl(49, 100%, 98%)" fill-opacity="0.9"/><rect x="414.7750722219348" y="1375.5142353949998" width="60" height="60" fill="hsl(49, 100%, 98%)" fill-opacity="0.9"/><rect x="539.9376518152466" y="771.4767584370086" width="60" height="60" fill="hsl(49, 100%, 98%)" fill-opacity="0.9"/><rect x="1465.3320152072888" y="1481.7524839926618" width="60" height="60" fill="hsl(49, 100%, 98%)" fill-opacity="0.9"/><rect x="628.3914813647559" y="1383.3244517299383" width="60" height="60" fill="hsl(49, 100%, 98%)" fill-opacity="0.9"/><rect x="1577.942683299791" y="950.6828368090165" width="60" height="60" fill="hsl(49, 100%, 98%)" fill-opacity="0.9"/><rect x="986.1949085335306" y="1363.5595657342276" width="60" height="60" fill="hsl(49, 100%, 98%)" fill-opacity="0.9"/><rect x="646.1511113729807" y="866.8034538792144" width="60" height="60" fill="hsl(49, 100%, 98%)" fill-opacity="0.9"/><rect x="467.2429562946086" y="1267.3271400221593" width="60" height="60" fill="hsl(49, 100%, 98%)" fill-opacity="0.9"/><rect x="1407.9792556848088" y="1875.478147249734" width="60" height="60" fill="hsl(49, 100%, 98%)" fill-opacity="0.9"/><rect x="139.42990581962096" y="1148.7851581689285" width="60" height="60" fill="hsl(49, 100%, 98%)" fill-opacity="0.9"/><rect x="1404.6675491009375" y="1187.3791208085227" width="60" height="60" fill="hsl(49, 100%, 98%)" fill-opacity="0.9"/><rect x="1795.4473547834154" y="1776.5281376188143" width="60" height="60" fill="hsl(49, 100%, 98%)" fill-opacity="0.9"/><rect x="940.4511212461997" y="1610.8266433369633" width="60" height="60" fill="hsl(49, 100%, 98%)" fill-opacity="0.9"/><rect x="1036.9113022419178" y="490.2368139538597" width="60" height="60" fill="hsl(49, 100%, 98%)" fill-opacity="0.9"/><rect x="1533.9118999890327" y="374.1860488190803" width="60" height="60" fill="hsl(49, 100%, 98%)" fill-opacity="0.9"/><rect x="735.475579161649" y="1725.1785424336751" width="60" height="60" fill="hsl(49, 100%, 98%)" fill-opacity="0.9"/><rect x="1736.1256820971255" y="1175.7431834117453" width="60" height="60" fill="hsl(49, 100%, 98%)" fill-opacity="0.9"/><rect x="855.1882282444113" y="659.9739613059228" width="60" height="60" fill="hsl(49, 100%, 98%)" fill-opacity="0.9"/><rect x="1796.0689993970343" y="541.9441678134884" width="60" height="60" fill="hsl(49, 100%, 98%)" fill-opacity="0.9"/><rect x="131.19854013096403" y="1006.7844380950771" width="60" height="60" fill="hsl(49, 100%, 98%)" fill-opacity="0.9"/><rect x="832.2454621787241" y="18.691826420079508" width="60" height="60" fill="hsl(49, 100%, 98%)" fill-opacity="0.9"/><rect x="1069.654583518937" y="561.6142171839681" width="60" height="60" fill="hsl(49, 100%, 98%)" fill-opacity="0.9"/><rect x="110.00649080632489" y="699.2626724783116" width="60" height="60" fill="hsl(49, 100%, 98%)" fill-opacity="0.9"/><rect x="198.23135525811009" y="11.615632162120393" width="60" height="60" fill="hsl(49, 100%, 98%)" fill-opacity="0.9"/><rect x="1640.9267257363115" y="1327.0609682956497" width="60" height="60" fill="hsl(49, 100%, 98%)" fill-opacity="0.9"/><rect x="806.1947664026505" y="1272.4377664400643" width="60" height="60" fill="hsl(49, 100%, 98%)" fill-opacity="0.9"/><rect x="1.200918951131844" y="1354.1654899721414" width="60" height="60" fill="hsl(49, 100%, 98%)" fill-opacity="0.9"/><rect x="1466.1767289809277" y="1090.2479207924891" width="60" height="60" fill="hsl(49, 100%, 98%)" fill-opacity="0.9"/><rect x="1388.5463966831194" y="1412.143055290484" width="60" height="60" fill="hsl(49, 100%, 98%)" fill-opacity="0.9"/><rect x="1512.5955984828688" y="1253.598711731954" width="60" height="60" fill="hsl(49, 100%, 98%)" fill-opacity="0.9"/><rect x="1504.5593007324712" y="1043.6519641963482" width="60" height="60" fill="hsl(49, 100%, 98%)" fill-opacity="0.9"/><rect x="590.5139686752817" y="911.352494402328" width="60" height="60" fill="hsl(49, 100%, 98%)" fill-opacity="0.9"/><rect x="930.3534438385853" y="36.00696892117415" width="60" height="60" fill="hsl(49, 100%, 98%)" fill-opacity="0.9"/><rect x="1403.9826643405938" y="765.9079314844907" width="60" height="60" fill="hsl(49, 100%, 98%)" fill-opacity="0.9"/><rect x="1253.6841939324577" y="1822.384851442003" width="60" height="60" fill="hsl(49, 100%, 98%)" fill-opacity="0.9"/><rect x="1110.720004076665" y="324.4477924553898" width="60" height="60" fill="hsl(49, 100%, 98%)" fill-opacity="0.9"/><rect x="570.068419580261" y="952.4335210679121" width="60" height="60" fill="hsl(49, 100%, 98%)" fill-opacity="0.9"/><rect x="1669.6081422770458" y="1265.874122702289" width="60" height="60" fill="hsl(49, 100%, 98%)" fill-opacity="0.9"/><rect x="165.5049345182204" y="457.1998715594947" width="60" height="60" fill="hsl(49, 100%, 98%)" fill-opacity="0.9"/><rect x="1062.7084536425627" y="1065.6347992242013" width="60" height="60" fill="hsl(49, 100%, 98%)" fill-opacity="0.9"/><rect x="187.14094906863969" y="635.1279061667528" width="60" height="60" fill="hsl(49, 100%, 98%)" fill-opacity="0.9"/><rect x="92.10453280039894" y="1041.2363727026147" width="60" height="60" fill="hsl(49, 100%, 98%)" fill-opacity="0.9"/><rect x="1733.197155275721" y="25.723125817815653" width="60" height="60" fill="hsl(49, 100%, 98%)" fill-opacity="0.9"/><rect x="1307.0173351023757" y="1175.5938624748994" width="60" height="60" fill="hsl(49, 100%, 98%)" fill-opacity="0.9"/><rect x="627.0647162074571" y="1662.630188912078" width="60" height="60" fill="hsl(49, 100%, 98%)" fill-opacity="0.9"/><rect x="504.27111873622846" y="1409.237571157109" width="60" height="60" fill="hsl(49, 100%, 98%)" fill-opacity="0.9"/><rect x="364.05360482774427" y="1896.8454023314334" width="60" height="60" fill="hsl(49, 100%, 98%)" fill-opacity="0.9"/><rect x="1156.1232003487962" y="1552.830309845873" width="60" height="60" fill="hsl(49, 100%, 98%)" fill-opacity="0.9"/><rect x="708.7942880738093" y="304.7715502418418" width="60" height="60" fill="hsl(49, 100%, 98%)" fill-opacity="0.9"/><rect x="886.2368357042768" y="871.0720694364769" width="60" height="60" fill="hsl(49, 100%, 98%)" fill-opacity="0.9"/><rect x="1439.089067452128" y="1879.8842974862084" width="60" height="60" fill="hsl(49, 100%, 98%)" fill-opacity="0.9"/><rect x="50.21369580451823" y="746.6147403416805" width="60" height="60" fill="hsl(49, 100%, 98%)" fill-opacity="0.9"/><rect x="641.7426714744646" y="831.1833469355553" width="60" height="60" fill="hsl(49, 100%, 98%)" fill-opacity="0.9"/><rect x="5.084204320365691" y="1891.8063767545164" width="60" height="60" fill="hsl(49, 100%, 98%)" fill-opacity="0.9"/><rect x="1165.8007710069996" y="1661.2351130367356" width="60" height="60" fill="hsl(49, 100%, 98%)" fill-opacity="0.9"/><rect x="791.1187770645489" y="1504.2597690703287" width="60" height="60" fill="hsl(49, 100%, 98%)" fill-opacity="0.9"/><rect x="1022.7025560897749" y="239.79034257911317" width="60" height="60" fill="hsl(49, 100%, 98%)" fill-opacity="0.9"/><rect x="5.220275651346276" y="1838.3705925812276" width="60" height="60" fill="hsl(49, 100%, 98%)" fill-opacity="0.9"/><rect x="678.3482624003751" y="1498.5498045242116" width="60" height="60" fill="hsl(49, 100%, 98%)" fill-opacity="0.9"/><rect x="1067.838724563113" y="1815.720103277318" width="60" height="60" fill="hsl(49, 100%, 98%)" fill-opacity="0.9"/><rect x="1816.3710936953182" y="1858.8300109420127" width="60" height="60" fill="hsl(49, 100%, 98%)" fill-opacity="0.9"/><rect x="69.0222873094468" y="40.7009634174687" width="60" height="60" fill="hsl(49, 100%, 98%)" fill-opacity="0.9"/><rect x="104.61665531443423" y="1496.962248595929" width="60" height="60" fill="hsl(49, 100%, 98%)" fill-opacity="0.9"/><rect x="312.49448403511695" y="1748.4710402673193" width="60" height="60" fill="hsl(49, 100%, 98%)" fill-opacity="0.9"/><rect x="567.4448383873023" y="170.56787920048149" width="60" height="60" fill="hsl(49, 100%, 98%)" fill-opacity="0.9"/><rect x="1691.9150440327626" y="1580.0085586465602" width="60" height="60" fill="hsl(49, 100%, 98%)" fill-opacity="0.9"/><rect x="1577.3817861959828" y="107.6698409735787" width="60" height="60" fill="hsl(49, 100%, 98%)" fill-opacity="0.9"/><rect x="281.81290664156734" y="1753.0377946300455" width="60" height="60" fill="hsl(49, 100%, 98%)" fill-opacity="0.9"/><rect x="1637.458508084145" y="281.4128446604639" width="60" height="60" fill="hsl(49, 100%, 98%)" fill-opacity="0.9"/><rect x="1223.128144710257" y="1011.2446772019482" width="60" height="60" fill="hsl(49, 100%, 98%)" fill-opacity="0.9"/><rect x="1553.0454403092792" y="1713.9357687116617" width="60" height="60" fill="hsl(49, 100%, 98%)" fill-opacity="0.9"/><rect x="1394.6755508074766" y="513.9503665663726" width="60" height="60" fill="hsl(49, 100%, 98%)" fill-opacity="0.9"/><rect x="1705.625093341684" y="1011.0613179854751" width="60" height="60" fill="hsl(49, 100%, 98%)" fill-opacity="0.9"/><rect x="1140.144480971066" y="1122.487223538263" width="60" height="60" fill="hsl(49, 100%, 98%)" fill-opacity="0.9"/><rect x="500.4412279122042" y="72.20168521889096" width="60" height="60" fill="hsl(49, 100%, 98%)" fill-opacity="0.9"/><rect x="945.3426978904582" y="1811.4352368443845" width="60" height="60" fill="hsl(49, 100%, 98%)" fill-opacity="0.9"/><rect x="518.5570331361663" y="391.4528009470885" width="60" height="60" fill="hsl(49, 100%, 98%)" fill-opacity="0.9"/><rect x="1348.8488438155805" y="277.4289517073528" width="60" height="60" fill="hsl(49, 100%, 98%)" fill-opacity="0.9"/><rect x="954.4447949648956" y="707.3000731600897" width="60" height="60" fill="hsl(49, 100%, 98%)" fill-opacity="0.9"/><rect x="879.6962454132004" y="1251.8687730174108" width="60" height="60" fill="hsl(49, 100%, 98%)" fill-opacity="0.9"/><rect x="1776.256078364936" y="358.94275995992797" width="60" height="60" fill="hsl(49, 100%, 98%)" fill-opacity="0.9"/><rect x="1760.8780317296241" y="773.7748576283284" width="60" height="60" fill="hsl(49, 100%, 98%)" fill-opacity="0.9"/><rect x="844.2606361442677" y="1740.1570003827114" width="60" height="60" fill="hsl(49, 100%, 98%)" fill-opacity="0.9"/><rect x="1656.2533150163074" y="707.4081595156171" width="60" height="60" fill="hsl(49, 100%, 98%)" fill-opacity="0.9"/><rect x="1743.8383985854136" y="504.102336486862" width="60" height="60" fill="hsl(49, 100%, 98%)" fill-opacity="0.9"/><rect x="1507.0180612452486" y="560.9044699454302" width="60" height="60" fill="hsl(49, 100%, 98%)" fill-opacity="0.9"/><rect x="1534.2230147829544" y="1262.1923965815135" width="60" height="60" fill="hsl(49, 100%, 98%)" fill-opacity="0.9"/><rect x="376.1600503238229" y="1087.0620256301793" width="60" height="60" fill="hsl(49, 100%, 98%)" fill-opacity="0.9"/><rect x="1217.087882705641" y="631.0714322168445" width="60" height="60" fill="hsl(49, 100%, 98%)" fill-opacity="0.9"/><rect x="1778.71047408976" y="150.99582065970733" width="60" height="60" fill="hsl(49, 100%, 98%)" fill-opacity="0.9"/><rect x="954.8036295424919" y="392.5688375698971" width="60" height="60" fill="hsl(49, 100%, 98%)" fill-opacity="0.9"/><rect x="1675.3272718178234" y="984.0860511440912" width="60" height="60" fill="hsl(49, 100%, 98%)" fill-opacity="0.9"/><rect x="647.0774809410742" y="1251.6014052155253" width="60" height="60" fill="hsl(49, 100%, 98%)" fill-opacity="0.9"/><rect x="1160.1211164549125" y="95.47798975643465" width="60" height="60" fill="hsl(49, 100%, 98%)" fill-opacity="0.9"/><rect x="561.9204372104716" y="38.67051513553315" width="60" height="60" fill="hsl(49, 100%, 98%)" fill-opacity="0.9"/><rect x="1101.4784032522102" y="400.1174207611821" width="60" height="60" fill="hsl(49, 100%, 98%)" fill-opacity="0.9"/><rect x="1877.7872019074853" y="401.758099123759" width="60" height="60" fill="hsl(49, 100%, 98%)" fill-opacity="0.9"/><rect x="199.59919233266356" y="231.60649027476063" width="60" height="60" fill="hsl(49, 100%, 98%)" fill-opacity="0.9"/><rect x="131.58784195716666" y="373.212537410828" width="60" height="60" fill="hsl(49, 100%, 98%)" fill-opacity="0.9"/><rect x="1551.4360636386255" y="136.12917563633331" width="60" height="60" fill="hsl(49, 100%, 98%)" fill-opacity="0.9"/><rect x="943.8162071563602" y="41.037324526840834" width="60" height="60" fill="hsl(49, 100%, 98%)" fill-opacity="0.9"/><rect x="1570.2541310201284" y="1713.6264475467929" width="60" height="60" fill="hsl(49, 100%, 98%)" fill-opacity="0.9"/><rect x="130.68547677562853" y="443.5496792500294" width="60" height="60" fill="hsl(49, 100%, 98%)" fill-opacity="0.9"/><rect x="32.12728739855264" y="1336.3632038597368" width="60" height="60" fill="hsl(49, 100%, 98%)" fill-opacity="0.9"/><rect x="122.53760637361489" y="1339.4659860768495" width="60" height="60" fill="hsl(49, 100%, 98%)" fill-opacity="0.9"/><rect x="1078.4476177094978" y="928.9186592225012" width="60" height="60" fill="hsl(49, 100%, 98%)" fill-opacity="0.9"/><rect x="894.3705787366533" y="1887.3342420234667" width="60" height="60" fill="hsl(49, 100%, 98%)" fill-opacity="0.9"/><rect x="1095.5293750114174" y="1184.1421105991353" width="60" height="60" fill="hsl(49, 100%, 98%)" fill-opacity="0.9"/><rect x="789.1540397350147" y="707.2398617527355" width="60" height="60" fill="hsl(49, 100%, 98%)" fill-opacity="0.9"/><rect x="1710.8504857876324" y="243.97469365005344" width="60" height="60" fill="hsl(49, 100%, 98%)" fill-opacity="0.9"/><rect x="1392.975716028583" y="1325.384234437877" width="60" height="60" fill="hsl(49, 100%, 98%)" fill-opacity="0.9"/><rect x="1589.0165281535699" y="1382.9034620301302" width="60" height="60" fill="hsl(49, 100%, 98%)" fill-opacity="0.9"/><rect x="1655.6132694840046" y="205.53269655479428" width="60" height="60" fill="hsl(49, 100%, 98%)" fill-opacity="0.9"/><rect x="73.09666411887984" y="1264.4950088360379" width="60" height="60" fill="hsl(49, 100%, 98%)" fill-opacity="0.9"/><rect x="197.5314110237121" y="272.04322173465954" width="60" height="60" fill="hsl(49, 100%, 98%)" fill-opacity="0.9"/><rect x="157.27828057660352" y="1292.3870581279664" width="60" height="60" fill="hsl(49, 100%, 98%)" fill-opacity="0.9"/><rect x="1803.154188932882" y="1827.1779611430359" width="60" height="60" fill="hsl(49, 100%, 98%)" fill-opacity="0.9"/><rect x="874.2878826231271" y="662.3125452176937" width="60" height="60" fill="hsl(49, 100%, 98%)" fill-opacity="0.9"/><rect x="1853.300638388151" y="838.1891914460984" width="60" height="60" fill="hsl(49, 100%, 98%)" fill-opacity="0.9"/><rect x="1609.7369283277037" y="1486.6250492760466" width="60" height="60" fill="hsl(49, 100%, 98%)" fill-opacity="0.9"/><rect x="1407.987471207267" y="1902.4765160620252" width="60" height="60" fill="hsl(49, 100%, 98%)" fill-opacity="0.9"/><rect x="763.0000628311651" y="1118.4362569474763" width="60" height="60" fill="hsl(49, 100%, 98%)" fill-opacity="0.9"/><rect x="412.4756127783912" y="723.3779095043893" width="60" height="60" fill="hsl(49, 100%, 98%)" fill-opacity="0.9"/><rect x="465.19746067042854" y="1273.1244849888183" width="60" height="60" fill="hsl(49, 100%, 98%)" fill-opacity="0.9"/><rect x="694.1950920540875" y="1523.5454469831016" width="60" height="60" fill="hsl(49, 100%, 98%)" fill-opacity="0.9"/><rect x="702.1920517395442" y="584.86942066203" width="60" height="60" fill="hsl(49, 100%, 98%)" fill-opacity="0.9"/><rect x="1182.983645582574" y="1814.8083582104057" width="60" height="60" fill="hsl(49, 100%, 98%)" fill-opacity="0.9"/><rect x="1540.7297868488583" y="166.68641777151325" width="60" height="60" fill="hsl(49, 100%, 98%)" fill-opacity="0.9"/><rect x="346.0035588370842" y="1592.8854079657376" width="60" height="60" fill="hsl(49, 100%, 98%)" fill-opacity="0.9"/><rect x="1654.041910987741" y="1698.628788068148" width="60" height="60" fill="hsl(49, 100%, 98%)" fill-opacity="0.9"/><rect x="1337.7265134473269" y="1116.8265799795367" width="60" height="60" fill="hsl(49, 100%, 98%)" fill-opacity="0.9"/><rect x="634.1884244593497" y="581.9993401811525" width="60" height="60" fill="hsl(49, 100%, 98%)" fill-opacity="0.9"/><rect x="1605.893863443765" y="1103.9196908682911" width="60" height="60" fill="hsl(49, 100%, 98%)" fill-opacity="0.9"/><rect x="298.59273987372137" y="1732.3786906962291" width="60" height="60" fill="hsl(49, 100%, 98%)" fill-opacity="0.9"/><rect x="991.0161273802669" y="1127.9414985133565" width="60" height="60" fill="hsl(49, 100%, 98%)" fill-opacity="0.9"/><rect x="944.119115744095" y="1515.4700948754169" width="60" height="60" fill="hsl(49, 100%, 98%)" fill-opacity="0.9"/><rect x="225.47064580515044" y="1516.2364837872076" width="60" height="60" fill="hsl(49, 100%, 98%)" fill-opacity="0.9"/><rect x="1204.6904456224097" y="1382.533919976608" width="60" height="60" fill="hsl(49, 100%, 98%)" fill-opacity="0.9"/><rect x="1531.667666047536" y="1918.1880308160635" width="60" height="60" fill="hsl(49, 100%, 98%)" fill-opacity="0.9"/><rect x="1655.245599661096" y="377.87907893951603" width="60" height="60" fill="hsl(49, 100%, 98%)" fill-opacity="0.9"/><rect x="839.9930402332594" y="693.6299388621818" width="60" height="60" fill="hsl(49, 100%, 98%)" fill-opacity="0.9"/><rect x="491.9461812980615" y="1603.1031730704276" width="60" height="60" fill="hsl(49, 100%, 98%)" fill-opacity="0.9"/><rect x="1865.345338286737" y="811.0382147028266" width="60" height="60" fill="hsl(49, 100%, 98%)" fill-opacity="0.9"/><rect x="859.0750851777879" y="198.62929860251313" width="60" height="60" fill="hsl(49, 100%, 98%)" fill-opacity="0.9"/><rect x="756.5791662083577" y="856.0180054731757" width="60" height="60" fill="hsl(49, 100%, 98%)" fill-opacity="0.9"/><rect x="347.3669406302477" y="1762.2264357403774" width="60" height="60" fill="hsl(49, 100%, 98%)" fill-opacity="0.9"/><rect x="1343.301854130544" y="361.77925797623163" width="60" height="60" fill="hsl(49, 100%, 98%)" fill-opacity="0.9"/><rect x="1099.6442771464044" y="1452.4336419164958" width="60" height="60" fill="hsl(49, 100%, 98%)" fill-opacity="0.9"/><rect x="763.0532861819848" y="1298.750070613442" width="60" height="60" fill="hsl(49, 100%, 98%)" fill-opacity="0.9"/><rect x="1436.783278709375" y="1639.6038944699344" width="60" height="60" fill="hsl(49, 100%, 98%)" fill-opacity="0.9"/><rect x="420.3535898912847" y="1559.625936101144" width="60" height="60" fill="hsl(49, 100%, 98%)" fill-opacity="0.9"/><rect x="903.4080019373167" y="1293.5078768020533" width="60" height="60" fill="hsl(49, 100%, 98%)" fill-opacity="0.9"/><rect x="470.5657368825984" y="1919.1639521823574" width="60" height="60" fill="hsl(49, 100%, 98%)" fill-opacity="0.9"/><rect x="1496.4333947749492" y="1841.5675830768444" width="60" height="60" fill="hsl(49, 100%, 98%)" fill-opacity="0.9"/><rect x="1913.397652032793" y="1876.0935600330372" width="60" height="60" fill="hsl(49, 100%, 98%)" fill-opacity="0.9"/><rect x="1910.4402636351801" y="1184.3180597359424" width="60" height="60" fill="hsl(49, 100%, 98%)" fill-opacity="0.9"/><rect x="1620.6759042144038" y="923.5537321351497" width="60" height="60" fill="hsl(49, 100%, 98%)" fill-opacity="0.9"/><rect x="1258.1519217383802" y="1471.2131628033837" width="60" height="60" fill="hsl(49, 100%, 98%)" fill-opacity="0.9"/><rect x="1590.0532768942871" y="119.0876882421435" width="60" height="60" fill="hsl(49, 100%, 98%)" fill-opacity="0.9"/><rect x="130.6386627358632" y="1303.0588501953657" width="60" height="60" fill="hsl(49, 100%, 98%)" fill-opacity="0.9"/><rect x="454.3645381134359" y="1698.6064779504882" width="60" height="60" fill="hsl(49, 100%, 98%)" fill-opacity="0.9"/><rect x="1130.1441595860792" y="383.2652166540578" width="60" height="60" fill="hsl(49, 100%, 98%)" fill-opacity="0.9"/><rect x="1604.0441179008317" y="167.03233877602418" width="60" height="60" fill="hsl(49, 100%, 98%)" fill-opacity="0.9"/><rect x="353.1207636052735" y="201.32658454888127" width="60" height="60" fill="hsl(49, 100%, 98%)" fill-opacity="0.9"/><rect x="496.3194215512107" y="609.6755228048255" width="60" height="60" fill="hsl(49, 100%, 98%)" fill-opacity="0.9"/><rect x="621.2763371814764" y="1739.6280870461337" width="60" height="60" fill="hsl(49, 100%, 98%)" fill-opacity="0.9"/><rect x="1240.3881598447513" y="38.33656657904347" width="60" height="60" fill="hsl(49, 100%, 98%)" fill-opacity="0.9"/><rect x="1549.673005329927" y="196.9518828865015" width="60" height="60" fill="hsl(49, 100%, 98%)" fill-opacity="0.9"/><rect x="665.3857645376681" y="845.3222055043595" width="60" height="60" fill="hsl(49, 100%, 98%)" fill-opacity="0.9"/><rect x="1857.618603274128" y="1133.332797842829" width="60" height="60" fill="hsl(49, 100%, 98%)" fill-opacity="0.9"/><rect x="1285.3533726542023" y="417.5443367541716" width="60" height="60" fill="hsl(49, 100%, 98%)" fill-opacity="0.9"/><rect x="754.0352293728005" y="182.15041556181856" width="60" height="60" fill="hsl(49, 100%, 98%)" fill-opacity="0.9"/><rect x="1767.7749464239962" y="827.0030409611658" width="60" height="60" fill="hsl(49, 100%, 98%)" fill-opacity="0.9"/><rect x="1340.4179093859875" y="293.5503513585035" width="60" height="60" fill="hsl(49, 100%, 98%)" fill-opacity="0.9"/><rect x="152.98027855663494" y="999.3866711563571" width="60" height="60" fill="hsl(49, 100%, 98%)" fill-opacity="0.9"/><rect x="601.2106777975843" y="1074.321155062127" width="60" height="60" fill="hsl(49, 100%, 98%)" fill-opacity="0.9"/><rect x="102.4304520259803" y="1897.392583549243" width="60" height="60" fill="hsl(49, 100%, 98%)" fill-opacity="0.9"/><rect x="1922.7820227843483" y="1684.5354233675664" width="60" height="60" fill="hsl(49, 100%, 98%)" fill-opacity="0.9"/><rect x="1097.2249195800932" y="401.1525330236584" width="60" height="60" fill="hsl(49, 100%, 98%)" fill-opacity="0.9"/><rect x="1896.9432086802565" y="1865.2470098730334" width="60" height="60" fill="hsl(49, 100%, 98%)" fill-opacity="0.9"/></svg>